<?xml version="1.0" standalone="no"?>
<!DOCTYPE svg PUBLIC "-//W3C//DTD SVG 20010904//EN"
 "http://www.w3.org/TR/2001/REC-SVG-20010904/DTD/svg10.dtd">
<svg version="1.0" xmlns="http://www.w3.org/2000/svg"
 width="192.000000pt" height="192.000000pt" viewBox="0 0 192.000000 192.000000"
 preserveAspectRatio="xMidYMid meet">
<metadata>
Created by potrace 1.14, written by Peter Selinger 2001-2017
</metadata>
<g transform="translate(0.000000,192.000000) scale(0.100000,-0.100000)"
fill="#000000" stroke="none">
<path d="M895 1723 c-35 -19 -64 -49 -76 -80 -8 -23 -11 -23 -190 -23 l-181 0
-30 -30 c-20 -20 -40 -30 -60 -30 -19 0 -39 -10 -59 -29 l-29 -29 0 -602 0
-602 29 -29 c20 -19 40 -29 59 -29 20 0 40 -10 60 -30 l30 -30 512 0 512 0 30
30 c19 19 40 30 58 30 16 0 41 11 57 24 l28 24 3 607 2 606 -29 30 c-20 19
-40 29 -59 29 -20 0 -40 10 -60 30 l-30 30 -181 0 -180 0 -17 33 c-22 42 -42
61 -83 75 -45 16 -80 14 -116 -5z m102 -53 c38 -14 53 -46 53 -115 l0 -55 -90
0 -90 0 0 61 c0 54 3 64 29 90 32 31 51 35 98 19z m-187 -170 l0 -60 150 0
150 0 0 60 0 60 168 0 c92 0 173 -4 180 -8 10 -7 12 -145 10 -658 l-3 -649
-505 0 -505 0 -3 649 c-2 513 0 651 10 658 7 4 88 8 181 8 l167 0 0 -60z
m-420 -600 c0 -638 2 -612 -44 -594 -14 6 -16 67 -16 593 0 323 3 591 7 594 3
4 17 7 30 7 l23 0 0 -600z m1188 592 c10 -7 12 -133 10 -598 l-3 -589 -27 -3
-28 -3 0 600 c0 566 1 601 18 601 9 0 23 -4 30 -8z"/>
<path d="M725 1338 c-32 -12 -39 -18 -71 -60 -17 -22 -22 -43 -23 -107 -1 -47
2 -82 9 -86 15 -10 12 -20 -15 -47 -31 -32 -55 -98 -55 -154 l0 -44 211 0 211
0 -4 64 c-5 62 -28 117 -63 146 -9 8 -11 19 -6 33 4 12 9 50 10 84 3 69 -20
125 -63 156 -32 22 -102 30 -141 15z m116 -77 c26 -26 29 -36 29 -90 0 -73
-25 -108 -82 -118 -32 -5 -41 -1 -68 25 -27 27 -30 37 -30 89 0 63 17 98 54
113 39 16 67 10 97 -19z m-43 -267 c25 3 50 10 55 15 16 16 37 1 57 -40 36
-70 38 -69 -131 -69 l-151 0 6 23 c3 12 6 27 6 32 0 6 11 23 25 38 25 26 27
27 57 11 21 -11 45 -14 76 -10z"/>
<path d="M1110 1320 l0 -30 150 0 150 0 0 30 0 30 -150 0 -150 0 0 -30z"/>
<path d="M1110 1200 l0 -30 150 0 150 0 0 30 0 30 -150 0 -150 0 0 -30z"/>
<path d="M1110 1080 l0 -30 120 0 120 0 0 30 0 30 -120 0 -120 0 0 -30z"/>
<path d="M1110 960 l0 -30 90 0 90 0 0 30 0 30 -90 0 -90 0 0 -30z"/>
<path d="M570 690 l0 -30 105 0 105 0 0 30 0 30 -105 0 -105 0 0 -30z"/>
<path d="M840 690 l0 -30 135 0 135 0 0 30 0 30 -135 0 -135 0 0 -30z"/>
<path d="M1176 704 c-3 -8 -6 -74 -6 -145 0 -151 -10 -142 140 -137 l95 3 0
145 0 145 -111 3 c-95 2 -113 0 -118 -14z"/>
<path d="M570 570 l0 -30 105 0 105 0 0 30 0 30 -105 0 -105 0 0 -30z"/>
<path d="M840 570 l0 -30 135 0 135 0 0 30 0 30 -135 0 -135 0 0 -30z"/>
<path d="M570 450 l0 -30 105 0 105 0 0 30 0 30 -105 0 -105 0 0 -30z"/>
<path d="M840 450 l0 -30 135 0 135 0 0 30 0 30 -135 0 -135 0 0 -30z"/>
</g>
</svg>
